<svg id="Icon_awesome-star" data-name="Icon awesome-star" xmlns="http://www.w3.org/2000/svg" width="22.891" height="21.91" viewBox="0 0 22.891 21.91">
  <path id="Icon_awesome-star-2" data-name="Icon awesome-star" d="M11.659.761,8.865,6.426l-6.251.911a1.37,1.37,0,0,0-.757,2.336l4.523,4.407-1.07,6.225a1.368,1.368,0,0,0,1.985,1.442l5.592-2.939,5.592,2.939a1.369,1.369,0,0,0,1.985-1.442l-1.07-6.225,4.523-4.407a1.37,1.37,0,0,0-.757-2.336l-6.251-.911L14.115.761a1.37,1.37,0,0,0-2.456,0Z" transform="translate(-1.441 0.001)" fill="#ee9617"/>
</svg>
